<svg xmlns="http://www.w3.org/2000/svg" viewBox="0 0 1024 1024">
  <path fill="#fafafa" d="M256 85.333333h512v85.333334H256V85.333333zM426.666667 597.333333H341.333333v-85.333333h85.333334v85.333333zM597.333333 597.333333v85.333334h-170.666666v-85.333334h170.666666zM597.333333 597.333333v-85.333333h85.333334v85.333333h-85.333334z"/>
  <path fill="#fafafa" d="M256 256V170.666667H170.666667v85.333333H85.333333v512h85.333334v85.333333h85.333333v85.333334h512v-85.333334h85.333333v-85.333333h85.333334V256h-85.333334V170.666667h-85.333333v85.333333h-85.333333v85.333333H341.333333V256H256z m85.333333 256v-85.333333h341.333334v85.333333h85.333333V256h85.333333v512h-85.333333v85.333333h-85.333333v-170.666666h-85.333334v170.666666h-170.666666v-170.666666H256v85.333333h85.333333v85.333333H256v-85.333333H170.666667v-85.333333h85.333333v-85.333334H170.666667V256h85.333333v256h85.333333z"/>
</svg>
